<?xml version="1.0" encoding="UTF-8"?>
<!DOCTYPE svg PUBLIC "-//W3C//DTD SVG 1.1//EN" "http://www.w3.org/Graphics/SVG/1.1/DTD/svg11.dtd">
<!-- Creator: CorelDRAW -->
<svg xmlns="http://www.w3.org/2000/svg" xml:space="preserve" width="1.70666in" height="1.70666in" style="shape-rendering:geometricPrecision; text-rendering:geometricPrecision; image-rendering:optimizeQuality; fill-rule:evenodd; clip-rule:evenodd"
viewBox="0 0 1.70666 1.70666"
 xmlns:xlink="http://www.w3.org/1999/xlink">
 <defs>
  <style type="text/css">
   <![CDATA[
    .fil0 {fill:black}
   ]]>
  </style>
 </defs>
 <g id="Layer_x0020_1">
  <metadata id="CorelCorpID_0Corel-Layer"/>
  <path class="fil0" d="M0.605421 1.63288c-0.136783,0 -0.263913,-0.0199567 -0.357996,-0.0561969 -0.112776,-0.043437 -0.172386,-0.107976 -0.172386,-0.186642l0 -0.220094c0.106386,0.0901102 0.322858,0.16061 0.538185,0.16061 0.110205,0 0.216449,-0.0148976 0.305075,-0.0419646 -0.0053622,0.0254685 -0.00820079,0.0518543 -0.00820079,0.0788937 0,0.0768819 0.022815,0.14852 0.0620039,0.208531 -0.0971102,0.0364685 -0.226669,0.0568583 -0.366626,0.0568622 -1.9685e-005,0 -3.93701e-005,0 -5.51181e-005,0zm0.327118 -0.394492c-0.089126,0.031374 -0.201579,0.0488425 -0.319315,0.0488425 -0.0950354,0 -0.442752,-0.0542323 -0.538185,-0.17039l0 -0.233976c0.106382,0.0901102 0.322858,0.16061 0.538189,0.16061 0.215327,0 0.431795,-0.0625472 0.538177,-0.148098l0 0.116665c-0.101524,0.0404488 -0.181768,0.123185 -0.218866,0.226346zm-0.412287 -0.58752c-0.0385315,0 -0.069874,-0.0313425 -0.069874,-0.069874 0,-0.0385276 0.0313425,-0.0698661 0.069874,-0.0698661 0.0385236,0 0.0698701,0.0313425 0.0698701,0.0698661 0,0.0385315 -0.0313465,0.069874 -0.0698701,0.069874zm0.185949 0.879004c-0.0385236,0 -0.0698661,-0.0313425 -0.0698661,-0.0698701 0,-0.0385315 0.0313425,-0.069874 0.0698661,-0.069874 0.0385315,0 0.069874,0.0313425 0.069874,0.069874 0,0.0385276 -0.0313425,0.0698701 -0.069874,0.0698701zm0 -0.0964134c-0.0146299,0 -0.0265354,0.0119055 -0.0265354,0.0265472 0,0.0146339 0.0119055,0.0265394 0.0265354,0.0265394 0.0146378,0 0.0265433,-0.0119055 0.0265433,-0.0265394 3.93701e-006,-0.0146417 -0.0119055,-0.0265472 -0.0265433,-0.0265472zm-0.185949 0.0964134c-0.0385315,0 -0.069874,-0.0313425 -0.069874,-0.0698701 0,-0.0385315 0.0313425,-0.069874 0.069874,-0.069874 0.0385236,0 0.0698701,0.0313425 0.0698701,0.069874 0,0.0385276 -0.0313465,0.0698701 -0.0698701,0.0698701zm0 -0.0964134c-0.0146378,0 -0.0265433,0.0119055 -0.0265433,0.0265472 0,0.0146339 0.0119094,0.0265394 0.0265433,0.0265394 0.0146339,0 0.0265394,-0.0119055 0.0265394,-0.0265394 0,-0.0146417 -0.0119055,-0.0265472 -0.0265394,-0.0265472zm0.185949 -0.198323c-0.0385236,0 -0.0698661,-0.0313425 -0.0698661,-0.0698701 0,-0.0385315 0.0313425,-0.0698701 0.0698661,-0.0698701 0.0385315,0 0.069874,0.0313386 0.069874,0.0698701 0,0.0385276 -0.0313425,0.0698701 -0.069874,0.0698701zm0 -0.0964094c-0.0146299,0 -0.0265354,0.0119055 -0.0265354,0.0265394 0,0.0146378 0.0119055,0.0265433 0.0265354,0.0265433 0.0146378,0 0.0265433,-0.0119055 0.0265433,-0.0265433 0,-0.0146339 -0.0119055,-0.0265394 -0.0265433,-0.0265394zm-0.185949 0.0964094c-0.0385315,0 -0.069874,-0.0313425 -0.069874,-0.0698701 0,-0.0385315 0.0313425,-0.0698701 0.069874,-0.0698701 0.0385236,0 0.0698701,0.0313386 0.0698701,0.0698701 0,0.0385276 -0.0313465,0.0698701 -0.0698701,0.0698701zm0 -0.0964094c-0.0146378,0 -0.0265433,0.0119055 -0.0265433,0.0265394 0,0.0146378 0.0119094,0.0265433 0.0265433,0.0265433 0.0146339,0 0.0265394,-0.0119055 0.0265394,-0.0265433 0,-0.0146339 -0.0119055,-0.0265394 -0.0265394,-0.0265394zm0.185949 -0.190693c-0.0385236,0 -0.0698661,-0.0313425 -0.0698661,-0.0698701 0,-0.0385315 0.0313425,-0.0698701 0.0698661,-0.0698701 0.0385315,0 0.069874,0.0313465 0.069874,0.0698701 0,0.0385276 -0.0313425,0.0698701 -0.069874,0.0698701zm0 -0.0964134c-0.00708661,0 -0.013748,0.00276378 -0.0187638,0.00777559 -0.00501181,0.00501575 -0.00777559,0.0116772 -0.00777559,0.0187677 0,0.0146339 0.0119055,0.0265394 0.0265394,0.0265394 0.0146339,0 0.0265433,-0.0119055 0.0265433,-0.0265394 0,-0.0146378 -0.0119055,-0.0265433 -0.0265433,-0.0265433l0 0zm-0.185949 0.0964134c-0.0385315,0 -0.069874,-0.0313425 -0.069874,-0.0698701 0,-0.0385315 0.0313425,-0.0698701 0.069874,-0.0698701 0.0385236,0 0.0698701,0.0313465 0.0698701,0.0698701 0,0.0385276 -0.0313465,0.0698701 -0.0698701,0.0698701zm-3.93701e-006 -0.0964134c-0.00708661,0 -0.013752,0.00276378 -0.0187638,0.00777953 -0.00501575,0.00501181 -0.00777953,0.0116732 -0.00777953,0.0187638 0,0.0146339 0.0119094,0.0265394 0.0265433,0.0265394 0.0146378,0 0.0265433,-0.0119055 0.0265433,-0.0265394 0,-0.0146378 -0.0119055,-0.0265433 -0.0265433,-0.0265433l0 0zm0.185953 -0.200752c-0.0385236,0 -0.0698661,-0.0313425 -0.0698661,-0.069874 0,-0.0385276 0.0313425,-0.0698661 0.0698661,-0.0698661 0.0385315,0 0.069874,0.0313425 0.069874,0.0698661 0,0.0385315 -0.0313425,0.069874 -0.069874,0.069874zm0 -0.0964094c-0.0146299,0 -0.0265354,0.0119055 -0.0265354,0.0265354 0,0.0146339 0.0119055,0.0265433 0.0265354,0.0265433 0.0146378,0 0.0265433,-0.0119094 0.0265433,-0.0265433 3.93701e-006,-0.0146299 -0.0119055,-0.0265354 -0.0265433,-0.0265354zm-0.185949 0c-0.0146378,0 -0.0265433,0.0119055 -0.0265433,0.0265354 0,0.0146339 0.0119094,0.0265433 0.0265433,0.0265433 0.0146339,0 0.0265394,-0.0119094 0.0265394,-0.0265433 0,-0.0146299 -0.0119055,-0.0265354 -0.0265394,-0.0265354zm-0.445213 0.275299l-3.93701e-006 -0.233965c0.106386,0.0901102 0.322862,0.160614 0.538193,0.160614 0.215327,0 0.431795,-0.0625512 0.538177,-0.148106l0 0.236244c-0.0954291,0.112921 -0.443146,0.155598 -0.538177,0.155598 -0.0950354,0 -0.442756,-0.0542244 -0.538189,-0.170386zm-3.93701e-006 -0.287079l0 -0.210264c0.0389016,0.0444094 0.0976378,0.0757402 0.149201,0.0959843 0.119303,0.0468346 0.261488,0.0638898 0.388988,0.0638898 0.127496,0 0.269685,-0.0170551 0.38898,-0.0638858 0.051563,-0.0202441 0.110303,-0.0515787 0.149201,-0.0959921l0 0.225063c-0.0954331,0.112921 -0.443142,0.155602 -0.538177,0.155602 -0.0950433,0 -0.442768,-0.0542323 -0.538193,-0.170398z"/>
  <path class="fil0" d="M0.613224 0.448961c-0.14061,0 -0.27313,-0.021626 -0.373154,-0.0608937 -0.106425,-0.0417795 -0.165039,-0.0998622 -0.165039,-0.163551 0,-0.063685 0.0586102,-0.121772 0.165035,-0.163551 0.100024,-0.0392638 0.232547,-0.0608858 0.373157,-0.0608858 0.14061,0 0.273126,0.021626 0.373146,0.0608898 0.106425,0.0417835 0.165031,0.0998661 0.165031,0.163551 0,0.063689 -0.0586063,0.121772 -0.165031,0.163551 -0.100016,0.0392638 -0.232539,0.0608898 -0.373146,0.0608898z"/>
  <path class="fil0" d="M1.29253 1.70658c-0.186984,0 -0.339102,-0.152118 -0.339102,-0.339094 0,-0.18698 0.152122,-0.339102 0.339102,-0.339102 0.186976,0 0.339094,0.152122 0.339094,0.339102 3.93701e-006,0.186976 -0.152114,0.339094 -0.339094,0.339094zm-0.0482126 -0.241039l0 0c-0.00575197,0 -0.0112598,-0.00228346 -0.0153228,-0.00634646l-0.0563583 -0.0563701c-0.00846063,-0.00845669 -0.00846063,-0.0221772 3.93701e-006,-0.0306378 0.00845669,-0.00845669 0.0221732,-0.00845276 0.0306378,3.93701e-006l0.0410394 0.0410394 0.137469 -0.137461c0.00846457,-0.00846063 0.0221811,-0.00845276 0.0306378,0 0.00846063,0.00846063 0.00846063,0.0221772 0,0.0306378l-0.152787 0.152787c-0.00406299,0.00406299 -0.00957874,0.00634646 -0.0153189,0.00634646z"/>
 </g>
</svg>
